<svg xmlns="http://www.w3.org/2000/svg" width="1521.72" height="411.09" viewBox="0 0 1521.72 411.09">
  <defs>
    <style>
      .cls-1 {
        isolation: isolate;
      }

      .cls-2 {
        fill: #fff;
        fill-rule: evenodd;
      }
    </style>
  </defs>
  <title>smileys_logo</title>
  <g id="logo" class="cls-1">
    <g id="text">
      <path class="cls-2" d="M534,233.5c-10.38-4.77-26.73-8.24-34.5-9s-42.32-.86-51.5-2S427.6,219,419,214s-9.07-13.11,0-18.5c15.11-8.52,37-9.5,50-9.5s8-.07,24.5,1.5a57.36,57.36,0,0,1,28,10.5,2.43,2.43,0,0,0,3-.5c.73-.84,9.84-9.41,11-10.5,1.56-1.48.58-3.47-.5-5s-11-18-12-19.5-2.58-.38-4,.5-5,3.4-8.5,4-11.67-.72-17-1.5-18.8-3.1-26.5-3a108.56,108.56,0,0,0-25.5,3c-12.05,2.62-29.05,10.36-41,18.5s-15.05,21.22-15.5,26.5,3.35,15.51,11,22,25,10.23,33.5,11.5,52.13,1.86,59.5,2.5,16.92,4.11,23,6.5,14.33,7.81,15,16.5-17.17,17.68-26,21.5-15.81,4.2-30.5,5.5-35.56-1.18-46.5-4.5-26.06-12.18-27.5-13-3.06.7-4,1.5-13.56,9.45-15,10.5-1.18,2.45,0,3.5c5,3.43,12.17,21.29,14.5,29.5.56,1.55,2.32,1.07,4,0s11.94-6.8,12-7.5-.06-2.3,0-3.5,2.69-.68,4,0,20.57,6.7,31,7.5a272.25,272.25,0,0,0,43,0c16.74-1.44,27.51-6.06,42.5-15.5S551,276.64,552,262.5,544.38,238.27,534,233.5ZM765,162H742.5a7.16,7.16,0,0,0-5,2c-1.26,1.26-59,67.68-62.8,72.25.15-.08.12-.07-.2.25,0,.05,0-.05.2-.25a2.42,2.42,0,0,1-3.2-.25c-1.76-1.94-59.52-69-61-70.5s-2.87-3.5-4.5-3.5H580c-1.27,0-2,.44-2,2v17.5c0,2.54.43,2.58,1.5,2.5s2.43,0,3.5,0,1,.33,1,1.5-1.5,111.54-1.5,113-.92,3-2,3-5.29.42-6.5.5-2,.67-2,2,0,14.92,0,16,.33,1.5,1.5,1.5h40c-1.46,0,2-.08,2-2s-.5-14-.5-15.5-.42-1.5-1.5-1.5h-6c-1,0-2-1.46-2-3s1-92.82,1-95.5,1.88-3.83,3.5-2,50.27,60.41,51.5,62a5.22,5.22,0,0,0,3,2,124.78,124.78,0,0,0,15,0c1.7-.35,2-1,3-2s47.87-59.62,49-61,2.87-1.25,3,0-1.5,95.49-1.5,97a2.62,2.62,0,0,1-1.5,2.5c-.58.26-3.81.69-4.5,1a2.81,2.81,0,0,0-1.5,2.5c0,1.25-.5,12-.5,13.5a1.85,1.85,0,0,0,2,2l37-.13c1.68,0,2.5-.7,2.5-1.87V306c0-1.42-.93-2.83-2-3a21.38,21.38,0,0,0-4,0,1.93,1.93,0,0,1-2-2c0-1.17.5-112.21.5-113.5s.28-2,1.5-2H765a1.84,1.84,0,0,0,2-2v-19C767,163,766.35,162,765,162Zm59,0H797c-2.93,0-5.5,1-5.5,3v15c0,2,1.06,2.5,2.5,2.5s4.51-.56,4.51,2c0,1.25-1.5,115-1.5,116.5s-2.93,1.74-3.5,2-3.81.19-4.5.5a2.79,2.79,0,0,0-1.5,2.5c0,1.25-.5,12-.5,13.5a1.85,1.85,0,0,0,2,2l34-.13c1.68,0,2.5-.7,2.5-1.87V306c0-1.42-.93-2.83-2-3a21.38,21.38,0,0,0-4,0,1.94,1.94,0,0,1-2-2c0-1.17.5-115.71.5-117s.28-2,1.5-2H824a1.84,1.84,0,0,0,2-2V164.5C826,163,825.36,162,824,162Zm712.43,71.65c-10.38-4.77-26.72-8.23-34.49-9s-42.31-.86-51.48-2-20.39-3.5-29-8.48-9.07-13.09,0-18.48c15.1-8.51,37-9.48,50-9.48s8-.07,24.49,1.49a57.34,57.34,0,0,1,28,10.49,2.44,2.44,0,0,0,3-.5c.74-.84,9.84-9.4,11-10.49,1.56-1.47.58-3.47-.5-5s-11-17.95-12-19.47-2.58-.38-4,.5-5,3.39-8.49,4-11.67-.72-17-1.5-18.79-3.09-26.49-3a108.39,108.39,0,0,0-25.49,3c-12,2.63-29,10.35-41,18.48s-15,21.18-15.5,26.46,3.35,15.48,11,22,25,10.22,33.49,11.48,52.11,1.86,59.47,2.5,16.92,4.1,23,6.49,14.32,7.8,15,16.48-17.16,17.65-26,21.46-15.8,4.2-30.49,5.5-35.54-1.18-46.48-4.5-26-12.16-27.49-13-3.06.7-4,1.5-13.55,9.43-15,10.48-1.18,2.45,0,3.5c5,3.42,12.17,21.26,14.5,29.46.56,1.55,2.32,1.07,4,0s11.94-6.8,12-7.49,0-2.3,0-3.5,2.69-.67,4,0,20.56,6.69,31,7.49a272.12,272.12,0,0,0,43,0c16.73-1.44,27.49-6,42.48-15.48s22.51-28.32,23.49-42.43S1546.81,238.41,1536.43,233.65ZM957.62,321.37h0Zm.38,0h0ZM977.5,280c-3.4-1-10.6-2.54-13.5-3s-4.35-.79-6,1.5-9.6,15.71-10.5,17.5-1.6,4-3.5,4c-1,0-13.23-.51-25.42-.44-10.85.06-21.68.69-24.58.94-6.15.54-11.5-.6-11.5-7.5,0-1.25,1.49-108,1.49-109.5a2.63,2.63,0,0,1,1.5-2.5c.58-.26,5.81-.19,6.5-.5a2.79,2.79,0,0,0,1.5-2.5c0-1.25.5-12.54.5-14a1.85,1.85,0,0,0-2-2l-37,.13c-1.68,0-2.5.7-2.5,1.87v13.5c0,1.42.93,2.83,2,3a21.38,21.38,0,0,0,4,0,1.94,1.94,0,0,1,2,2c0,1.17-.5,115.21-.5,116.5s-.28,2-1.5,2H849a1.84,1.84,0,0,0-2,2v16c0,1.51.64,2.5,2,2.5l107.9-.13c0-.05,5-.49,6.1-3.87,1.35-4.21,11.18-27.56,14-31S980.9,281,977.5,280Zm130.12,41.37h0Zm18.88-39.87c-3.4-1-6.58-.64-13-1-2.93-.17-4.35-.79-6,1.5s-8.1,14.21-9,16-1.6,4-3.5,4c-1,0-10.23-1-22.42-.94-10.85.06-21.68.69-24.58.94-6.15.54-9-2.1-9-9,0-.58.32-23,.66-47.06,0-.33,2.69-3.1,5.84-4.94,10-5.82,25.7-9.32,36.5-7.5,3.72.63,5.11,1.29,6,0a127,127,0,0,0,8.5-14c.57-1.16-6.18-7.13-13-7-24.26.45-36.43,7.44-39.1,9.1s-4.41.86-4.4.51c.27-19.24.49-35,.49-35.61a2.63,2.63,0,0,1,1.5-2.5c.58-.26,46.24-.5,47-.5,3.12,0,6.39,1.42,7,2.5.34.6,2.48,4.81,4,7,.51.74,2.76,3.31,5.5.5,1.22-.71,6.93-4.54,9.5-6.5,1.1-.82,3.36-2.36,2-4.5-2.28-6.21-8.28-17.1-8.5-17.5a8.07,8.07,0,0,0-4.51-3l-95,.13c-1.68,0-2.5.7-2.5,1.87v16.5c0,1.42.93,2.83,2,3a21.38,21.38,0,0,0,4,0,1.94,1.94,0,0,1,2,2c0,1.17-.5,112.21-.5,113.5s-.28,2-1.5,2H1001a1.84,1.84,0,0,0-2,2v16c0,1.51.65,2.5,2,2.5l105.9-.13c-.05-.05,5-.49,6.1-3.87,1.35-4.21,10.18-26.06,13-29.5S1129.9,282.46,1126.5,281.5ZM1108,321.37h0Zm202-159.62h-40.5c-3.15,0-5.5,2-5.5,4.25v13.5c0,1.77.29,3.18,2,3a37.23,37.23,0,0,1,4.5,0c2.25,0,2.44,1.56.5,3.5s-36,48-36,48-3.75,2.23-5.5,0-33-43.52-35-45.5-2-4.52-.5-4.5,5-.27,5-2,.5-18.77.5-16,.84-4-3-4H1151c-2.75,0-4,1.43-4,3v15.5c0,2.27.5,3,3,3h5.5c1.25,0,3,.85,4.5,3.5s21.25,28.73,25.5,33.5,30.63,36.8,32,38.5,2.5,3.17,2.5,7.5c0,1.25-.49,33-.49,34.5s-2.93,1.74-3.5,2-3.81.19-4.5.5a2.79,2.79,0,0,0-1.5,2.5c0,1.25-.5,12-.5,13.5a1.85,1.85,0,0,0,2,2l39-.13c1.68,0,2.5-.7,2.5-1.87V306c0-1.42-.93-2.83-2-3a21.38,21.38,0,0,0-4,0,1.94,1.94,0,0,1-2-2c0-1.17.49-33.71.5-35,0-4.45-.44-3.69,1.5-7s45.75-68.27,47-71a6.81,6.81,0,0,1,5.5-4c1.5,0,5-.52,7.5-.5s4-.77,4-3,.5-10.27.5-12.5S1312.5,161.75,1310,161.75ZM1355.5,145c-1.31-1.47-3.44-1-5.5,0a105.46,105.46,0,0,0-11.5,8c-2.71,2.32-3.19,4.47-1,5s1.31,1,6,2.5,10.62,9.77,14,15.5c1.69,1.28,3.81,2.22,5,.5s11.31-8.53,12-9.5-1.21-3.15-2.5-4.5S1356.81,146.47,1355.5,145Z" transform="translate(-32.77 -40)"/>
    </g>
    <g id="sheild">
      <path class="cls-2" d="M162.59,85.27s11.57-2.64,16.65-6.37A27,27,0,0,0,190,63.71H192s4.22,11.59,11.76,15.68,11.86,4.73,20.59,6.86l22.52,5.52,1.65-18.89c-15.56-3.82-28.48-7.09-31.82-8.2-5.31-2.18-7.59-4.7-9.9-9.91-1.63-3.66-.47-10.73-6.61-10.73H181.83c-6.14,0-5,7.07-6.61,10.73-2.31,5.21-4.6,7.73-9.91,9.91-3,1-13.78,3.77-27.21,7.12l11.74,16.61Zm185.78,3.24c-3.45-2.32-8-4.67-11.43-7.62s-7.62,4.44-7.62,4.44-5.44,6.13-11.43,4.45c-2.46-.69-18.33-4.5-36.85-9l1.18,19.64c16.51,4,30.51,7.47,32.26,7.85,3.51.89,8.19.19,10.79-.49a56.78,56.78,0,0,0-1.48,11.27c0,3.81-6.37,236.18-6.37,236.18s-108.62,59-112.7,61.25-11.51,8-12.74,10.29h-1c-.89-2.19-10.41-9.06-12.75-10.29S65.57,354.77,65.57,354.77s-6.66-235.69-6.86-239.61-.78-6.54-1.47-7.85c2.47,1.44,9,1.31,11.26,1,.13,0,.54-.1,1.17-.25a107.69,107.69,0,0,1-2.53-18.83c-1,.26-1.79.46-2.18.57-6,1.68-11.44-4.45-11.44-4.45s-4.17-7.39-7.62-4.44-8,5.3-11.44,7.62-1,6.57,1.91,10.79,3.45,12.29,3.81,19,6.35,220,6.35,229.24-.55,16.14,4.45,21,109,60.88,114.4,63.5,6.89,3.09,9.53,5.08,7.53,6.9,8.26,9.53,2.19,4.44,5,4.44h6.49c2.84,0,4.31-1.82,5-4.44s5.62-7.54,8.25-9.53,4.15-2.45,9.53-5.08,109.34-58.69,114.34-63.5,4.44-11.7,4.44-21,6-222.48,6.35-229.24.91-14.83,3.81-19S351.82,90.82,348.37,88.51Z" transform="translate(-32.77 -40)"/>
    </g>
    <g id="wing">
      <path class="cls-2" d="M140.7,127.53v-30S100.56,46.08,94.19,40c-7.74,18.6,6.47,42.49,11.88,50.24S140.7,127.53,140.7,127.53Zm-7.24,32.63c-2.83-7.33-5.68-32.11-5.68-32.11S91.62,95.72,77.65,84c1.3,6.24,10.07,36.23,16,43S118.75,149.44,133.46,160.16ZM94.7,169.48c6.71,5.53,21.77,15.34,34.63,23.82-3.11-5.86-8.79-33.14-8.79-33.14S87.67,136.44,73,124.42C73,135.65,88,163.94,94.7,169.48Zm35.15,67.33c-1.9-4.79-8.7-24.68-10.86-38.33-5-4.53-32.59-23-43.92-32.63.7,10.49,10.69,33.55,22.74,45.58C106.26,220.37,117.62,228.25,129.85,236.81Zm-29.46,17.61c7.53,4.52,31,15,31,15l-11.37-29S89.14,221.12,75.58,213.5C80.53,235.11,92.86,249.9,100.39,254.42Zm1,34.18c6.13,5.88,20,12.25,32.56,17.09-2.66-3.95-7.7-18.81-9.82-26.41-14.1-8.56-29.81-16-41.34-21.76C83.78,264.45,95.3,282.71,101.42,288.6Zm-2.2,16.15c4.64,7.55,18.08,20.3,24,23.77s12.92,6.16,25.43,8.81c-3.47-4.37-11.3-15.38-14.24-22.14C129.75,313.35,110.55,307.82,99.22,304.75Zm85,33c-4.93-3.47-26-12.43-41.93-19.15A204.27,204.27,0,0,0,160.12,341C168.38,342.45,189.13,341.24,184.19,337.76Zm1.47-161.55-1-29-37.2-44c-2.08,5.47-3.81,22.23,3.61,33.66S185.66,176.21,185.66,176.21ZM180,206.77l-3.1-25.38L134.5,131.67c-.26,4.81.33,25.86,9.82,37.81S180,206.77,180,206.77Zm-38.76-6.22c6.91,7.29,40.31,36.78,40.31,36.78l-5.68-25.9-46-46.09C128.94,169.79,134.31,193.26,141.21,200.55Zm2.59,43c5.87,5.74,33.07,24.34,33.07,24.34l-9.82-32.11-40.3-33.66C127.86,214.82,137.93,237.81,143.8,243.54Zm.52,35.74c6.55,4.54,33.07,18.64,33.07,18.64L169.64,272l-42.38-28.49C128.78,249.62,137.76,274.73,144.32,279.28ZM151,313.46c8.82,5.19,30.49,15,30.49,15l-9.3-22.79-39.79-23.31C133.79,296.06,142.21,308.27,151,313.46Zm101.34,62.79s-11.29-15.7-16.07-21.52a76.17,76.17,0,0,1-7.48-10.87l-47.3-33.51c.51,7.27,8.29,24.37,13.23,27.26s7.21,3,26.19,15.33A148.25,148.25,0,0,1,252.5,381ZM225.45,225.41c-.63-8.26-4.53-39.6-9.3-44.54s-25.84-30-25.84-30l2.07,29S215,209.76,225.45,225.41Zm-40.83-39.36a119.82,119.82,0,0,0,2.59,26.42l40.31,51.79s-1.14-12.43-2.59-26.93C213.88,219.53,184.62,186.05,184.62,186.05Zm0,33.15c.16,7.7,2.68,22.14,6.21,27.45s37.72,49.72,37.72,49.72.26-15.76-1.55-22.27C223.57,268.45,184.62,219.2,184.62,219.2Zm-7.23,25.38c1.31,5.82,4.52,25.93,12.4,32.63s39.28,43,39.28,43-.5-6.35-1.55-15C222,297.37,177.39,244.58,177.39,244.58Zm13.44,62.66c6,2.32,39.27,30,39.27,30a85,85,0,0,0-2.58-12.43c-12.82-16-49.61-46.61-49.61-46.61C178.06,280,184.42,301.48,190.83,307.24Z" transform="translate(-32.77 -40)"/>
    </g>
    <g id="pen">
      <path class="cls-2" d="M268.5,55.5c-.71-4.12-6.51-8.82-7.5.5s-17.17,181.22-11.5,229.5c1,8.49,3.55,16.44,6,17.5s12.42-11.48,16-19,5.62-23.93,5.5-31.5S269.21,59.62,268.5,55.5Zm-9,253c-2.36-2.39-5.55-3.07-6.5-.5-1,2.81-3.63,5.63-3.5,12.5s1.37,23,1.5,24.5,2,0,2,0-.31-7.69,0-11,3.59-2.07,3.5.5-.78,13.17-1,18.5a79.21,79.21,0,0,0,.5,13.5c.43,2.57,2.5-1,2.5-1s-.44-6.34,2.5-11.5,8.16-11.9,9-16-.49-7.94-1.5-11.5S261.85,310.89,259.5,308.5Z" transform="translate(-32.77 -40)"/>
    </g>
  </g>
</svg>
