<?xml version="1.0" standalone="no"?>
<!DOCTYPE svg PUBLIC "-//W3C//DTD SVG 20010904//EN"
 "http://www.w3.org/TR/2001/REC-SVG-20010904/DTD/svg10.dtd">
<svg version="1.0" xmlns="http://www.w3.org/2000/svg"
 width="840.000000pt" height="840.000000pt" viewBox="0 0 840.000000 840.000000"
 preserveAspectRatio="xMidYMid meet">
<metadata>
Created by potrace 1.11, written by Peter Selinger 2001-2013
</metadata>
<g transform="translate(0.000000,840.000000) scale(0.100000,-0.100000)"
fill="#000000" stroke="none">
<path d="M2235 8268 c-12 -35 -19 -92 -21 -168 -3 -101 0 -134 20 -225 21
-101 93 -282 153 -388 18 -33 33 -61 33 -63 0 -11 101 -148 158 -214 127 -147
588 -630 601 -630 5 0 7 567 2 591 -1 5 -206 267 -304 389 -7 9 -93 117 -191
240 -175 219 -424 520 -430 520 -2 0 -11 -24 -21 -52z"/>
<path d="M3963 8230 c-25 -10 -51 -47 -59 -81 -2 -13 -9 -45 -14 -70 -16 -80
-70 -164 -135 -209 -38 -26 -159 -73 -219 -84 -12 -2 -106 -26 -209 -52 -149
-38 -187 -51 -182 -63 7 -17 213 -309 223 -315 4 -2 48 7 97 20 50 13 99 26
110 28 104 21 248 68 320 104 110 54 215 171 256 283 28 76 44 74 87 -10 122
-236 202 -284 661 -396 374 -92 401 -98 405 -94 5 6 29 266 30 333 l1 39 -310
79 c-170 43 -329 88 -353 99 -98 48 -151 122 -184 255 -16 65 -29 96 -49 117
l-27 27 -214 -1 c-117 0 -223 -4 -235 -9z"/>
<path d="M5628 8099 c-21 -12 -35 -61 -43 -159 -4 -41 -8 -86 -10 -100 -2 -14
-6 -56 -9 -95 -4 -38 -9 -97 -12 -130 -3 -33 -7 -78 -9 -100 -6 -78 -17 -201
-20 -235 -2 -19 -7 -73 -10 -120 -3 -47 -8 -101 -10 -120 -2 -19 -7 -73 -10
-120 -4 -47 -8 -101 -10 -120 -2 -19 -6 -73 -9 -120 -4 -47 -9 -110 -11 -140
-3 -30 -7 -89 -10 -130 -3 -41 -8 -100 -10 -130 -3 -30 -7 -93 -10 -140 -3
-47 -7 -114 -10 -150 -6 -86 -13 -183 -20 -305 -3 -55 -8 -125 -10 -155 -2
-30 -7 -102 -10 -160 -3 -58 -8 -139 -10 -180 -45 -791 -50 -1558 -11 -1810
25 -160 81 -311 118 -318 64 -12 286 278 344 448 13 40 26 86 29 104 3 17 8
38 10 46 4 14 7 31 19 108 16 98 21 167 20 322 0 158 -8 445 -19 655 -3 44 -7
143 -10 220 -6 160 -12 305 -20 485 -12 279 -15 341 -20 485 -3 83 -8 191 -10
240 -2 50 -7 153 -10 230 -11 265 -17 410 -30 685 -3 58 -7 159 -10 225 -7
171 -18 396 -30 618 -5 92 -20 135 -57 161 -26 18 -36 19 -60 5z"/>
<path d="M1268 7486 c-24 -18 -85 -59 -136 -91 -50 -31 -95 -61 -98 -67 -14
-22 -4 -80 19 -120 13 -24 36 -64 51 -90 26 -45 49 -134 60 -233 8 -71 18
-365 41 -1175 3 -96 7 -254 10 -350 3 -96 7 -258 10 -360 3 -102 7 -268 10
-370 3 -102 8 -266 10 -365 3 -99 7 -250 10 -335 2 -85 7 -256 10 -380 3 -124
8 -290 10 -370 3 -80 7 -246 10 -370 3 -124 8 -290 10 -370 2 -80 4 -219 5
-310 3 -272 25 -339 139 -414 52 -34 266 -160 405 -238 469 -262 589 -328
1161 -638 44 -24 98 -54 120 -67 22 -12 47 -26 55 -30 8 -3 98 -51 200 -106
102 -55 247 -131 322 -168 76 -39 162 -90 196 -118 65 -54 127 -132 137 -173
4 -14 19 -38 35 -53 26 -25 33 -27 124 -27 116 0 137 10 170 85 26 59 109 154
170 196 23 16 104 60 181 99 77 39 181 93 230 120 50 27 135 72 190 102 55 29
114 60 130 70 17 10 68 38 115 63 47 24 105 56 130 70 25 13 140 76 255 139
116 64 226 124 245 135 19 11 87 48 150 83 99 54 187 103 430 238 64 36 328
191 371 218 63 39 109 106 124 180 3 16 8 112 10 213 6 309 15 688 20 851 3
85 7 245 10 355 3 110 7 268 10 350 2 83 7 249 10 370 3 121 8 294 10 385 12
431 15 528 20 710 3 107 7 263 10 345 5 142 12 387 20 685 23 824 27 860 105
990 64 107 75 152 43 184 -17 16 -259 178 -276 184 -18 6 -68 -31 -101 -77
-20 -27 -58 -63 -84 -80 -76 -48 -113 -49 -302 -2 -377 92 -583 141 -591 141
-5 0 -7 -28 -4 -62 5 -81 18 -299 18 -315 0 -9 48 -26 107 -38 33 -7 81 -18
105 -26 33 -10 235 -58 275 -66 14 -2 58 -13 98 -24 80 -21 163 -27 230 -15
23 4 42 4 42 -1 0 -4 -5 -35 -10 -68 -10 -62 -16 -193 -25 -545 -3 -113 -7
-284 -10 -380 -6 -218 -13 -472 -20 -750 -6 -219 -10 -386 -20 -745 -3 -110
-8 -281 -10 -380 -3 -99 -7 -263 -10 -365 -3 -102 -7 -266 -10 -365 -5 -186
-12 -440 -20 -725 -3 -91 -7 -264 -10 -384 -3 -121 -8 -223 -10 -227 -3 -4
-29 -20 -58 -37 -59 -33 -59 -33 -532 -290 -192 -104 -377 -204 -410 -222 -33
-18 -87 -48 -120 -65 -33 -18 -85 -46 -115 -62 -46 -26 -315 -172 -569 -310
-35 -19 -159 -87 -275 -150 -215 -117 -332 -195 -397 -266 l-37 -39 -41 41
c-77 77 -189 150 -447 292 -143 78 -278 152 -301 165 -23 13 -143 78 -265 145
-123 67 -243 133 -268 147 -25 13 -72 39 -105 57 -33 18 -127 70 -210 115 -82
46 -184 101 -225 123 -41 22 -79 43 -85 47 -5 5 -44 26 -85 48 -58 30 -479
261 -487 266 -1 1 -12 341 -28 931 -3 110 -8 270 -10 355 -2 85 -7 247 -10
360 -3 113 -7 268 -10 345 -3 77 -7 237 -10 355 -3 118 -8 278 -10 355 -2 77
-7 232 -10 345 -3 113 -7 273 -10 355 -3 83 -7 233 -10 335 -28 1007 -32 1105
-44 1163 -6 23 -9 43 -7 45 2 1 14 -1 27 -6 32 -13 196 -15 203 -4 3 5 -1 47
-9 93 -12 76 -23 161 -31 244 -1 17 -3 33 -3 37 -1 4 -13 3 -27 -2 -78 -30
-179 10 -252 100 -78 95 -102 103 -164 56z"/>
<path d="M1933 7400 c18 -89 144 -479 199 -610 71 -171 100 -210 275 -367 107
-95 337 -282 483 -393 47 -36 91 -71 98 -78 8 -6 22 -17 33 -22 17 -10 18 -8
9 12 -9 22 -53 241 -65 323 -3 22 -8 58 -11 80 -3 22 -8 51 -10 65 -2 14 -7
52 -10 85 -7 69 14 45 -228 260 -11 10 -154 136 -210 185 -15 14 -38 34 -50
45 -12 11 -55 49 -96 85 -41 35 -77 67 -80 70 -3 3 -54 48 -115 100 -138 119
-165 143 -179 155 -6 6 -20 17 -30 25 -18 14 -19 13 -13 -20z"/>
<path d="M3300 6988 c-27 -133 -16 -345 24 -461 42 -124 128 -245 344 -486 37
-41 74 -82 82 -91 18 -21 216 -233 283 -303 41 -43 51 -49 49 -26 -1 3 -4 95
-7 205 -12 378 -9 352 -47 393 -19 20 -70 79 -113 131 -43 52 -89 106 -101
120 -13 14 -127 149 -255 300 -127 151 -234 276 -239 278 -4 1 -13 -26 -20
-60z"/>
<path d="M1830 6608 c0 -37 44 -185 85 -288 66 -165 185 -384 275 -504 43 -59
70 -84 160 -152 76 -58 593 -405 597 -401 1 2 -7 30 -18 63 -11 32 -24 73 -29
89 -14 46 -66 259 -90 370 -12 55 -24 108 -26 117 -3 9 -53 52 -112 95 -156
113 -566 416 -572 423 -3 3 -43 35 -90 70 -47 36 -87 67 -90 70 -3 3 -24 20
-47 38 -42 32 -43 32 -43 10z"/>
<path d="M3064 6357 c3 -71 8 -132 10 -136 2 -3 7 -27 11 -51 18 -128 72 -286
128 -375 67 -108 358 -420 711 -764 l45 -44 -4 34 c-3 19 -7 54 -10 79 -3 25
-7 59 -9 75 -2 17 -8 62 -12 100 -4 39 -8 72 -9 75 -1 3 -5 36 -10 74 -5 50
-14 77 -30 95 -25 28 -311 364 -379 445 -23 27 -46 54 -51 60 -6 6 -89 103
-184 216 -96 113 -183 214 -194 225 -19 20 -19 19 -13 -108z"/>
<path d="M4185 5990 c3 -63 8 -131 9 -150 2 -19 7 -80 10 -135 13 -194 -2
-161 189 -417 148 -200 215 -291 322 -441 11 -15 49 -70 85 -122 36 -52 68
-95 72 -95 6 0 4 44 -7 120 -2 19 -9 71 -15 115 -6 44 -12 92 -15 108 -3 15
-10 55 -15 90 -6 34 -13 72 -15 85 -2 12 -6 30 -9 40 -3 9 -7 33 -10 52 -18
114 -68 237 -121 295 -59 64 -83 92 -210 240 -203 237 -219 256 -248 294 l-29
36 7 -115z"/>
<path d="M2967 5804 c-2 -3 -3 -22 -1 -42 23 -203 106 -470 184 -591 27 -42
110 -130 206 -218 17 -15 73 -66 124 -113 112 -103 95 -87 210 -190 52 -47
100 -89 106 -95 90 -81 154 -138 178 -156 26 -21 28 -21 23 -3 -3 10 -29 126
-58 257 l-53 238 -457 459 c-251 252 -459 457 -462 454z"/>
<path d="M1870 5793 c1 -36 45 -201 69 -258 5 -11 15 -36 22 -55 18 -50 110
-235 148 -300 102 -169 235 -322 411 -467 90 -75 432 -324 438 -319 1 2 -17
62 -42 134 -54 157 -116 379 -147 522 l-23 105 -63 48 c-35 26 -177 129 -316
229 -138 100 -307 224 -374 276 -68 51 -123 89 -123 85z"/>
<path d="M4064 5280 c16 -289 35 -386 90 -460 22 -30 43 -57 46 -60 3 -3 147
-187 320 -410 172 -223 334 -430 358 -460 l44 -54 -6 49 c-3 28 -8 79 -11 115
-3 36 -8 81 -10 100 -2 19 -6 60 -9 90 -17 192 -14 179 -79 275 -60 90 -204
283 -301 403 -111 138 -405 488 -426 507 l-22 20 6 -115z"/>
<path d="M2912 5018 c33 -186 157 -504 262 -671 56 -88 99 -129 286 -268 95
-70 205 -149 235 -169 12 -8 63 -43 111 -77 49 -34 90 -59 92 -54 5 14 -187
624 -200 636 -7 7 -87 74 -178 150 -91 76 -185 154 -210 175 -253 213 -396
330 -401 330 -4 0 -2 -24 3 -52z"/>
<path d="M1890 4817 c82 -327 283 -653 481 -780 56 -36 334 -173 514 -254 55
-25 104 -48 109 -51 5 -3 7 -1 4 4 -3 5 -54 133 -113 284 -59 151 -112 281
-117 287 -8 11 -229 151 -336 214 -15 9 -135 81 -267 161 -313 189 -285 175
-275 135z"/>
<path d="M4066 4675 c5 -64 17 -149 39 -262 10 -49 46 -155 67 -197 20 -39 88
-131 342 -466 179 -236 408 -534 419 -545 6 -6 7 49 3 155 -9 257 -9 259 -112
397 -101 136 -659 853 -738 948 l-25 30 5 -60z"/>
<path d="M2923 4226 c3 -8 11 -34 17 -58 14 -50 63 -183 91 -245 10 -24 19
-45 19 -48 0 -14 105 -213 138 -263 48 -73 119 -119 545 -351 160 -87 195
-103 182 -82 -3 5 -38 120 -79 256 -41 135 -75 247 -77 249 -2 1 -128 85 -279
186 -151 101 -336 225 -411 277 -76 51 -140 93 -144 93 -4 0 -5 -6 -2 -14z"/>
<path d="M3920 4218 c0 -4 7 -35 14 -70 8 -35 17 -74 20 -88 28 -135 77 -278
124 -362 25 -47 77 -109 167 -200 72 -73 166 -173 210 -222 44 -49 91 -101
105 -115 14 -15 54 -61 90 -102 36 -40 67 -76 70 -79 3 -3 57 -63 119 -135
l114 -129 -7 59 c-4 33 -9 88 -12 122 -3 34 -7 70 -9 80 -2 10 -4 24 -4 31 -1
6 -58 83 -128 169 -138 171 -153 190 -168 207 -13 14 -170 203 -300 361 -55
66 -102 122 -105 125 -3 3 -39 46 -80 95 -41 50 -77 92 -80 95 -3 3 -29 34
-59 70 -70 84 -81 96 -81 88z"/>
<path d="M2033 3940 c24 -116 235 -459 358 -581 63 -63 187 -142 324 -209 99
-48 318 -140 322 -136 2 2 -9 29 -23 62 -35 78 -88 224 -129 353 l-32 104 -84
50 c-123 73 -147 86 -458 244 l-284 144 6 -31z"/>
<path d="M3930 3541 c0 -5 19 -65 41 -133 83 -246 157 -386 229 -436 179 -121
443 -324 754 -581 18 -15 19 -14 13 24 -22 137 -45 205 -84 253 -98 119 -412
419 -743 707 -169 147 -210 179 -210 166z"/>
<path d="M3025 3429 c35 -226 172 -449 345 -564 57 -38 453 -237 582 -293 l47
-20 -20 51 c-11 29 -54 133 -95 232 -67 161 -78 182 -107 196 -18 8 -150 85
-295 170 -314 185 -308 181 -352 206 -19 11 -52 31 -74 43 l-38 23 7 -44z"/>
<path d="M2360 3016 c0 -10 122 -156 177 -211 208 -209 318 -284 513 -352 98
-35 268 -78 276 -70 3 2 -24 45 -59 93 -70 97 -149 222 -187 296 -24 47 -25
47 -135 82 -118 38 -563 166 -577 166 -4 0 -8 -2 -8 -4z"/>
<path d="M5430 2958 c-54 -88 -65 -136 -64 -278 0 -115 10 -300 19 -390 2 -14
3 -38 4 -53 1 -21 5 -28 19 -25 15 3 18 19 22 127 4 105 8 126 23 135 15 9 21
7 33 -8 12 -16 13 -44 7 -150 -12 -198 -10 -523 3 -536 20 -20 41 22 47 92 7
86 38 159 118 283 82 126 108 183 113 243 7 93 -66 304 -164 476 -65 114 -140
149 -180 84z"/>
<path d="M4006 2878 c27 -154 169 -445 245 -498 15 -12 65 -40 111 -64 102
-53 239 -134 336 -198 41 -26 75 -48 78 -48 8 0 147 -102 244 -180 93 -74 323
-294 374 -358 l26 -34 0 49 c-1 45 -7 56 -111 198 -61 83 -148 197 -194 255
-45 58 -103 137 -129 177 -25 39 -59 80 -74 91 -31 22 -434 307 -702 497 -102
72 -191 134 -197 138 -10 6 -11 0 -7 -25z"/>
<path d="M3282 2654 c95 -130 271 -337 298 -351 18 -9 73 -12 200 -9 233 4
320 27 272 69 -21 18 -145 83 -232 122 -36 15 -96 43 -135 61 -91 42 -450 194
-459 194 -3 0 22 -39 56 -86z"/>
</g>
</svg>
